<?xml version="1.0" encoding="UTF-8" standalone="no"?>
<svg
   xmlns:dc="http://purl.org/dc/elements/1.1/"
   xmlns:cc="http://creativecommons.org/ns#"
   xmlns:rdf="http://www.w3.org/1999/02/22-rdf-syntax-ns#"
   xmlns:svg="http://www.w3.org/2000/svg"
   xmlns="http://www.w3.org/2000/svg"
   xmlns:xlink="http://www.w3.org/1999/xlink"
   xmlns:sodipodi="http://sodipodi.sourceforge.net/DTD/sodipodi-0.dtd"
   xmlns:inkscape="http://www.inkscape.org/namespaces/inkscape"
   sodipodi:docname="logo.svg"
   inkscape:version="1.0 (4035a4fb49, 2020-05-01)"
   id="svg8"
   version="1.1"
   viewBox="0 0 132.29167 132.29167"
   height="500"
   width="500"
   inkscape:export-filename="C:\Users\dylan\Desktop\logo.png"
   inkscape:export-xdpi="198.12"
   inkscape:export-ydpi="198.12">
  <defs
     id="defs2">
    <linearGradient
       id="linearGradient864"
       inkscape:collect="always">
      <stop
         id="stop860"
         offset="0"
         style="stop-color:#d400dc;stop-opacity:1" />
      <stop
         id="stop862"
         offset="1"
         style="stop-color:#0096cc;stop-opacity:1" />
    </linearGradient>
    <filter
       inkscape:collect="always"
       style="color-interpolation-filters:sRGB"
       id="filter5014"
       x="-0.0384"
       width="1.0768"
       y="-0.0384"
       height="1.0768">
      <feGaussianBlur
         inkscape:collect="always"
         stdDeviation="1.905"
         id="feGaussianBlur5016" />
    </filter>
    <filter
       height="1.2399919"
       y="-0.11999595"
       width="1.2400081"
       x="-0.12000405"
       id="filter33"
       style="color-interpolation-filters:sRGB"
       inkscape:collect="always">
      <feGaussianBlur
         id="feGaussianBlur35"
         stdDeviation="3.8287418"
         inkscape:collect="always" />
    </filter>
    <linearGradient
       gradientUnits="userSpaceOnUse"
       y2="95.061012"
       x2="92.415176"
       y1="40.254463"
       x1="39.309525"
       id="linearGradient866"
       xlink:href="#linearGradient864"
       inkscape:collect="always" />
  </defs>
  <sodipodi:namedview
     inkscape:window-maximized="1"
     inkscape:window-y="-8"
     inkscape:window-x="-8"
     inkscape:window-height="1027"
     inkscape:window-width="1920"
     inkscape:snap-grids="true"
     inkscape:pagecheckerboard="true"
     width="49px"
     units="px"
     showgrid="false"
     inkscape:document-rotation="0"
     inkscape:current-layer="layer2"
     inkscape:document-units="mm"
     inkscape:cy="69.723474"
     inkscape:cx="-413.99367"
     inkscape:zoom="0.49497475"
     inkscape:pageshadow="2"
     inkscape:pageopacity="0.0"
     borderopacity="1.0"
     bordercolor="#666666"
     pagecolor="#ffffff"
     id="base" />
  <metadata
     id="metadata5">
    <rdf:RDF>
      <cc:Work
         rdf:about="">
        <dc:format>image/svg+xml</dc:format>
        <dc:type
           rdf:resource="http://purl.org/dc/dcmitype/StillImage" />
        <dc:title />
      </cc:Work>
    </rdf:RDF>
  </metadata>
  <g
     style="display:inline"
     inkscape:groupmode="layer"
     id="layer1"
     inkscape:label="Base Circle"
     sodipodi:insensitive="true">
    <circle
       inkscape:label="Shadow"
       style="display:inline;opacity:0.36;fill:#000000;fill-opacity:1;fill-rule:evenodd;stroke-width:0.256424;filter:url(#filter5014)"
       id="circle3352"
       cx="66.145836"
       cy="68.065247"
       r="59.53125"
       inkscape:transform-center-x="6.4946494"
       inkscape:transform-center-y="3.367596"
       inkscape:export-xdpi="38.817287"
       inkscape:export-ydpi="38.817287"
       sodipodi:insensitive="true" />
    <circle
       inkscape:label="Circle"
       inkscape:transform-center-y="3.367596"
       inkscape:transform-center-x="6.4946494"
       r="59.53125"
       cy="66.145836"
       cx="66.145836"
       id="path1917"
       style="display:inline;fill:#ffffff;fill-opacity:1;fill-rule:evenodd;stroke-width:0.256424"
       sodipodi:insensitive="true" />
  </g>
  <g
     sodipodi:insensitive="true"
     style="display:inline"
     inkscape:label="Base Icon"
     id="layer2"
     inkscape:groupmode="layer">
    <path
       sodipodi:insensitive="true"
       inkscape:label="Shadow"
       style="display:inline;opacity:0.16;stroke-width:4.2543;filter:url(#filter33)"
       d="M 104.43196,60.676625 H 75.5878 L 87.244578,48.679498 C 75.630345,37.192887 56.826327,36.767462 45.212095,48.254041 c -11.614249,11.529158 -11.614249,30.120448 0,41.692154 11.614232,11.486595 30.41825,11.486595 42.032483,0 5.785859,-5.743316 8.678776,-12.422572 8.678776,-20.846087 h 8.508606 c 0,8.423515 -3.74378,19.357078 -11.231356,26.759564 -14.932603,14.804968 -39.182115,14.804968 -54.114702,0 -14.890057,-14.762437 -15.017677,-38.756691 -0.08522,-53.519111 14.932602,-14.76242 38.884311,-14.76242 53.816898,0 L 104.43184,30.38598 V 60.676593 M 68.27028,51.657487 V 69.738262 L 83.160321,78.587201 80.097224,83.734908 61.88883,72.928978 V 51.657487 Z"
       id="path20" />
    <path
       sodipodi:insensitive="true"
       inkscape:export-ydpi="5.3099999"
       inkscape:export-xdpi="5.3099999"
       inkscape:export-filename="C:\Users\dylan\Desktop\16.png"
       id="path31"
       d="M 104.43196,58.476645 H 75.5878 L 87.244578,46.479518 C 75.630345,34.992907 56.826327,34.567482 45.212095,46.054061 c -11.614249,11.529158 -11.614249,30.120448 0,41.692154 11.614232,11.486597 30.41825,11.486597 42.032483,0 5.785859,-5.743316 8.678776,-12.422572 8.678776,-20.846087 h 8.508606 c 0,8.423515 -3.74378,19.357078 -11.231356,26.759564 -14.932603,14.804968 -39.182115,14.804968 -54.114702,0 -14.890057,-14.762437 -15.017677,-38.756691 -0.08522,-53.519111 14.932602,-14.76242 38.884311,-14.76242 53.816898,0 L 104.43184,28.186 V 58.476613 M 68.27028,49.457507 V 67.538282 L 83.160321,76.387221 80.097224,81.534928 61.88883,70.728998 V 49.457507 Z"
       style="display:inline;fill:url(#linearGradient866);fill-opacity:1;stroke-width:4.2543"
       inkscape:label="Logo" />
  </g>
</svg>
